<?xml version="1.0" standalone="no"?>
<!DOCTYPE svg PUBLIC "-//W3C//DTD SVG 20010904//EN"
 "http://www.w3.org/TR/2001/REC-SVG-20010904/DTD/svg10.dtd">
<svg version="1.0" xmlns="http://www.w3.org/2000/svg"
 width="292.000000pt" height="292.000000pt" viewBox="0 0 292.000000 292.000000"
 preserveAspectRatio="xMidYMid meet">
<metadata>
Created by potrace 1.14, written by Peter Selinger 2001-2017
</metadata>
<g transform="translate(0.000000,292.000000) scale(0.100000,-0.100000)"
fill="#000000" stroke="none">
<path d="M1710 2354 c-14 -2 -45 -9 -70 -15 -25 -6 -52 -12 -60 -14 -68 -14
-201 -82 -295 -151 -204 -148 -305 -313 -350 -570 -46 -263 19 -610 125 -663
48 -25 126 -49 180 -56 25 -3 53 -8 63 -11 31 -10 262 -11 328 -3 218 29 383
104 509 233 51 52 55 54 56 31 4 -67 63 -73 141 -15 l53 41 1 -33 c1 -18 1
-37 0 -41 -1 -7 79 0 85 7 1 0 4 29 7 64 7 69 24 99 84 152 46 41 52 28 24
-56 -40 -116 -29 -174 32 -174 53 0 147 70 147 110 0 22 -2 21 -37 -13 -36
-37 -57 -45 -68 -27 -3 5 6 46 21 90 41 127 35 169 -22 170 -24 0 -98 -54
-131 -96 -27 -34 -27 -33 -7 35 8 29 13 55 11 57 -2 2 -22 1 -43 -4 -32 -6
-42 -15 -57 -47 -11 -21 -21 -46 -23 -54 -2 -9 -8 -33 -13 -53 -5 -20 -6 -39
-3 -42 3 -4 -2 -6 -11 -6 -9 0 -17 -4 -17 -8 0 -12 -59 -44 -70 -37 -18 11
-11 72 18 157 91 266 102 317 98 458 -4 117 -7 136 -38 218 -67 180 -220 310
-423 358 -30 7 -216 13 -245 8z"/>
<path d="M266 1739 c-198 -49 -297 -225 -251 -449 9 -45 47 -139 61 -151 8 -6
14 -17 14 -24 0 -25 119 -142 177 -172 87 -46 153 -62 265 -65 159 -4 265 29
294 90 60 126 50 373 -22 513 -49 98 -180 201 -308 244 -61 20 -178 27 -230
14z"/>
</g>
</svg>
