<?xml version="1.0" encoding="UTF-8" standalone="no"?>
<svg xmlns="http://www.w3.org/2000/svg" height="70.032" width="150" version="1.1">
	<path d="m76.67,69.61c9.1965-1.0547,17.749-9.9333,16.259-19.398-0.62953-4.0057-3.2549-8.1354-7.5978-11.008-3.3954-2.2461-19.979-10.087-22.889-12.102-1.7839-1.3663-5.2852-5.1103-5.5432-7.5237-0.69976-6.5034,2.8501-9.2859,6.4485-10.95,1.4812-0.69848,3.3979-0.95387,4.1845-1.0458,6.7128-0.78404,8.8913,0.43544,15.031,3.3481,0.63208,0.2988,1.2603,0.31413,1.9409,0.20686,2.0648-0.32434,3.4911-1.2297,3.1668-3.2932-0.243-1.5319-1.095-2.2329-2.694-3.0259-4.281-2.1172-12.307-4.6544-19.068-3.5908-0.11365,0.0166-0.22346,0.040862-0.33583,0.058739l-0.0166-0.094493c-9.38,1.5605-16.814,10.043-15.333,19.456,0.79681,5.0592,4.6889,9.2974,8.6678,11.887,2.665,2.2346,12.294,6.105,21.824,11.388,3.38,1.8745,4.7438,3.7261,5.2393,7.9183,0.5146,4.3492-4.5242,9.291-8.4635,10.786-6.1242,1.7954-13.321-0.75084-18.117-3.2881-1.4314-0.93216-2.0891-1.4251-3.4069-1.2169-2.0623,0.32562-3.472,2.2615-3.1489,4.325,0.21708,1.3727,1.0075,2.3355,2.3521,2.9293,8.5287,3.7542,14.28,5.0618,21.5,4.2343z" fill="#900"/>
	<path d="M17.398,0c-0.161-0.00019154-0.328,0.060648-0.479,0.11971-9.3316,1.0461-16.638,8.8152-16.919,18.356h0.11971c-0.006519,0.09322-0.039904,0.18388-0.039904,0.27965v47.406c0,1.7466,1.1548,3.1548,2.6337,3.4318,0.026917,0.005,0.052662,0.03564,0.079808,0.0399,0.39969,0.13963,0.86114,0.19982,1.3168,0.19952h26.895v0.19952c10.996-0.02682,19.913-8.9475,19.913-19.952,0-8.8969-5.8448-16.419-13.887-18.994,3.4171-3.2879,5.5468-7.8926,5.5468-13.009,0-9.6641-7.5812-17.544-17.119-18.037-0.0664-0.0090382-0.1328-0.038308-0.20048-0.038308h-7.8608zm0.27933,6.2649,7.2226,0c6.0993,0.62892,10.854,5.6681,10.854,11.812,0,5.9389-4.449,10.844-10.255,11.732h-15.922c-1.0894-0.38-2.0128-1.156-2.5539-2.156-0.3562-0.651-0.5586-1.4-0.5586-2.194v-0.91764h-0.11975v-5.786c0-0.17492-0.018102-0.35071-0.039904-0.51876,0.394-6.226,5.2245-11.228,11.372-11.891v-0.079809zm13.329,29.848,0,0.11971c7.4535,0.11492,13.447,6.2057,13.447,13.687,0,7.4803-5.9942,13.533-13.447,13.648v0.0399h-24.66v-22.745h0.11971v-0.9178c0-0.79425,0.20239-1.5423,0.55866-2.1948,0.3439-0.636,0.8449-1.186,1.4365-1.596h22.106c0.1496,0,0.29487-0.01986,0.43895-0.0399z" fill="#900"/>
	<path d="m110.1,1.3967,0,0.039904h-0.15961c-5.6556,0-10.302,4.3362-10.814,9.8564v54.23c0,1.7305,1.135,3.1768,2.5937,3.4717,0.0772,0.0156,0.16038,0.03084,0.23942,0.0399,0.0812,0.0098,0.15603,0.0399,0.23943,0.0399,0.0263,0.000742,0.0533,0,0.0798,0h14.086c0.0274,0,0.0881,0.0011,0.11971,0,18.582-0.42139,33.52-15.381,33.52-33.799,0-18.223-14.611-33.078-32.921-33.799-0.30264-0.037031-0.55483-0.079808-0.71828-0.079808h-6.2649zm-1.1173,5.786,10.375,0c14.131,1.7775,25.06,13.682,25.06,28.093,0,14.313-10.79,26.113-24.78,28.013h-10.455c-1.3816-0.29625-2.5756-1.1556-3.2268-2.3547-0.35499-0.65379-0.51971-1.4021-0.51971-2.1951v-0.9178h-0.0399v-46.25c0.008-0.78021,0.20878-1.5538,0.55866-2.1948,0.62698-1.1556,1.7111-1.9846,3.0327-2.2745z" fill="#900"/>
</svg>